<?xml version="1.0" standalone="no"?><!DOCTYPE svg PUBLIC "-//W3C//DTD SVG 1.1//EN" "http://www.w3.org/Graphics/SVG/1.1/DTD/svg11.dtd"><svg t="1738132017454" class="icon" viewBox="0 0 1024 1024" version="1.1" xmlns="http://www.w3.org/2000/svg" p-id="7247" xmlns:xlink="http://www.w3.org/1999/xlink" width="200" height="200"><path d="M808.064 896c20.181333 0 36.736-16.739556 36.736-37.404444V433.706667c0-10.695111-4.494222-20.864-12.302222-27.960889L536.931556 137.528889a36.124444 36.124444 0 0 0-48.824889-0.056889L191.544889 405.76a37.788444 37.788444 0 0 0-12.344889 27.989333v424.846223c0 20.679111 16.554667 37.418667 36.736 37.418666h592.128z m0 51.2H215.936C167.352889 947.2 128 907.406222 128 858.595556V433.706667c0-25.130667 10.609778-49.095111 29.184-65.934223L453.745778 99.512889a87.324444 87.324444 0 0 1 117.589333 0.099555l295.580445 268.245334A89.016889 89.016889 0 0 1 896 433.706667v424.874666c0 48.824889-39.352889 88.618667-87.936 88.618667zM491.719111 167.566222v-51.2h0.853333v51.2h-0.853333z m0-51.2h0.853333v51.2h-0.853333v-51.2z" fill="#F79C1F" p-id="7248"></path><path d="M406.385778 771.498667a25.6 25.6 0 1 1-51.2 0V537.6a25.6 25.6 0 0 1 25.6-25.6H629.617778a25.6 25.6 0 0 1 25.6 25.6v233.898667a25.6 25.6 0 1 1-51.2 0V563.2H406.385778v208.298667z" fill="#F79C1F" p-id="7249"></path></svg>