<?xml version="1.0" standalone="no"?><!DOCTYPE svg PUBLIC "-//W3C//DTD SVG 1.1//EN" "http://www.w3.org/Graphics/SVG/1.1/DTD/svg11.dtd"><svg t="1738484782130" class="icon" viewBox="0 0 1024 1024" version="1.1" xmlns="http://www.w3.org/2000/svg" p-id="1468" xmlns:xlink="http://www.w3.org/1999/xlink" width="200" height="200"><path d="M512 512m-490.666667 0a490.666667 490.666667 0 1 0 981.333334 0 490.666667 490.666667 0 1 0-981.333334 0Z" fill="#FFCACA" p-id="1469"></path><path d="M256 485.376c0-58.624 36.778667-111.381333 93.013333-133.461333 56.213333-22.058667 120.682667-8.981333 162.986667 33.024 42.304-42.026667 106.773333-55.082667 162.986667-33.024 56.234667 22.08 93.013333 74.837333 93.013333 133.461333 0.106667 45.653333-22.272 88.597333-60.288 115.669333l-168.746667 134.336a52.586667 52.586667 0 0 1-66.346666-1.024l-164.352-139.456c-33.194667-27.328-52.309333-67.370667-52.266667-109.525333z" fill="#F0396C" p-id="1470"></path></svg>